<svg width="16" height="14" viewBox="0 0 16 14" fill="none" xmlns="http://www.w3.org/2000/svg">
<path d="M0 6.9999C0 6.60756 0.273604 6.28332 0.628586 6.23201L0.727273 6.22493L13.5118 6.22555L8.8931 1.32413C8.60847 1.02214 8.60748 0.531457 8.89089 0.228164C9.14853 -0.0475578 9.55252 -0.0734978 9.83768 0.150955L9.91941 0.225803L15.7861 6.45032C15.8236 6.49013 15.8562 6.53321 15.8838 6.57871C15.8916 6.5924 15.8996 6.60641 15.9071 6.6207C15.9141 6.63295 15.9203 6.64567 15.9262 6.65853C15.9345 6.67725 15.9425 6.69658 15.9498 6.7163C15.9557 6.73151 15.9606 6.74631 15.9651 6.76122C15.9705 6.77971 15.9757 6.79941 15.9802 6.81941C15.9835 6.83338 15.9861 6.84682 15.9884 6.86031C15.9917 6.88039 15.9944 6.90117 15.9964 6.92219C15.9981 6.93823 15.9991 6.95412 15.9997 6.97002C15.9998 6.97966 16 6.98976 16 6.9999L15.9996 7.02992C15.9991 7.04513 15.9981 7.06032 15.9967 7.07548L16 6.9999C16 7.0488 15.9957 7.09665 15.9876 7.14304C15.9857 7.15412 15.9835 7.16549 15.981 7.17682C15.9758 7.20015 15.9699 7.22261 15.963 7.24464C15.9596 7.25558 15.9557 7.26727 15.9515 7.27888C15.943 7.3022 15.9337 7.32442 15.9236 7.34608C15.9189 7.35626 15.9136 7.36692 15.908 7.37747C15.899 7.39468 15.8896 7.41104 15.8797 7.42698C15.8727 7.43827 15.865 7.45001 15.8569 7.46157L15.8506 7.4705C15.831 7.49778 15.8097 7.52363 15.787 7.54788L15.7861 7.5486L9.91945 13.7742C9.63484 14.0762 9.17436 14.0752 8.89093 13.7719C8.63327 13.4962 8.61063 13.0656 8.82247 12.7627L8.89306 12.6759L13.5098 7.77548L0.727273 7.77486C0.325611 7.77486 0 7.4279 0 6.9999Z" fill="#595B62"/>
</svg>
