<svg width="24" height="24" viewBox="0 0 24 24" fill="none" xmlns="http://www.w3.org/2000/svg">
<path d="M12.0001 4C12.3924 4 12.7167 4.2736 12.768 4.62859L12.7751 4.72727L12.7744 17.5118L17.6759 12.8931C17.9779 12.6085 18.4685 12.6075 18.7718 12.8909C19.0476 13.1485 19.0735 13.5525 18.849 13.8377L18.7742 13.9194L12.5497 19.7861C12.5099 19.8236 12.4668 19.8562 12.4213 19.8838C12.4076 19.8916 12.3936 19.8996 12.3793 19.9071C12.367 19.9141 12.3543 19.9203 12.3415 19.9262C12.3228 19.9345 12.3034 19.9425 12.2837 19.9498C12.2685 19.9557 12.2537 19.9606 12.2388 19.9651C12.2203 19.9705 12.2006 19.9757 12.1806 19.9802C12.1666 19.9835 12.1532 19.9861 12.1397 19.9884C12.1196 19.9917 12.0988 19.9944 12.0778 19.9964C12.0618 19.9981 12.0459 19.9991 12.03 19.9997C12.0203 19.9998 12.0102 20 12.0001 20L11.9701 19.9996C11.9549 19.9991 11.9397 19.9981 11.9245 19.9967L12.0001 20C11.9512 20 11.9034 19.9957 11.857 19.9876C11.8459 19.9857 11.8345 19.9835 11.8232 19.981C11.7999 19.9758 11.7774 19.9699 11.7554 19.963C11.7444 19.9596 11.7327 19.9557 11.7211 19.9515C11.6978 19.943 11.6756 19.9337 11.6539 19.9236C11.6437 19.9189 11.6331 19.9136 11.6225 19.908C11.6053 19.899 11.589 19.8896 11.573 19.8797C11.5617 19.8727 11.55 19.865 11.5384 19.8569L11.5295 19.8506C11.5022 19.831 11.4764 19.8097 11.4521 19.787L11.4514 19.7861L5.22585 13.9194C4.92383 13.6348 4.92485 13.1744 5.22812 12.8909C5.50382 12.6333 5.9344 12.6106 6.23732 12.8225L6.32408 12.8931L11.2245 17.5098L11.2251 4.72727C11.2251 4.32561 11.5721 4 12.0001 4Z" fill="#595B62"/>
</svg>
