<svg width="28" height="28" viewBox="0 0 28 28" fill="none" xmlns="http://www.w3.org/2000/svg">
<path fill-rule="evenodd" clip-rule="evenodd" d="M5 8.33562C5 7.59798 5.59798 7 6.33562 7H21.6644C22.402 7 23 7.59798 23 8.33562C23 9.07326 22.402 9.67123 21.6644 9.67123H6.33562C5.59798 9.67123 5 9.07326 5 8.33562ZM5 14.5C5 13.7624 5.59798 13.1644 6.33562 13.1644H21.6644C22.402 13.1644 23 13.7624 23 14.5C23 15.2376 22.402 15.8356 21.6644 15.8356H6.33562C5.59798 15.8356 5 15.2376 5 14.5ZM6.33562 19.3288C5.59798 19.3288 5 19.9267 5 20.6644C5 21.402 5.59798 22 6.33562 22H21.6644C22.402 22 23 21.402 23 20.6644C23 19.9267 22.402 19.3288 21.6644 19.3288H6.33562Z" fill="white"/>
<mask id="mask0_1045_4593" style="mask-type:alpha" maskUnits="userSpaceOnUse" x="5" y="7" width="18" height="15">
<path fill-rule="evenodd" clip-rule="evenodd" d="M5 8.33562C5 7.59798 5.59798 7 6.33562 7H21.6644C22.402 7 23 7.59798 23 8.33562C23 9.07326 22.402 9.67123 21.6644 9.67123H6.33562C5.59798 9.67123 5 9.07326 5 8.33562ZM5 14.5C5 13.7624 5.59798 13.1644 6.33562 13.1644H21.6644C22.402 13.1644 23 13.7624 23 14.5C23 15.2376 22.402 15.8356 21.6644 15.8356H6.33562C5.59798 15.8356 5 15.2376 5 14.5ZM6.33562 19.3288C5.59798 19.3288 5 19.9267 5 20.6644C5 21.402 5.59798 22 6.33562 22H21.6644C22.402 22 23 21.402 23 20.6644C23 19.9267 22.402 19.3288 21.6644 19.3288H6.33562Z" fill="white"/>
</mask>
<g mask="url(#mask0_1045_4593)">
</g>
</svg>
