<svg width="32" height="32" viewBox="0 0 32 32" fill="none" xmlns="http://www.w3.org/2000/svg">
<path opacity="0.1" fill-rule="evenodd" clip-rule="evenodd" d="M0 16C0 7.16344 7.16344 0 16 0C24.8366 0 32 7.16344 32 16C32 24.8366 24.8366 32 16 32C7.16344 32 0 24.8366 0 16Z" fill="#6C7D8C"/>
<path d="M19.4103 17.0485L19.8767 13.8155H16.9589V11.7184C16.9589 10.8337 17.3658 9.97087 18.6726 9.97087H20V7.21845C20 7.21845 18.7959 7 17.6452 7C15.2411 7 13.6712 8.54879 13.6712 11.3515V13.8155H11V17.0485H13.7V25H16.9589V17.0485H19.4103Z" fill="white"/>
</svg>
